<svg width="16" height="16" viewBox="0 0 16 16" fill="none" xmlns="http://www.w3.org/2000/svg">
  <path d="M8 2C5.79 2 4 3.79 4 6V10C4 12.21 5.79 14 8 14C10.21 14 12 12.21 12 10V6C12 3.79 10.21 2 8 2ZM8 3C9.66 3 11 4.34 11 6V10C11 11.66 9.66 13 8 13C6.34 13 5 11.66 5 10V6C5 4.34 6.34 3 8 3Z" fill="black"/>
  <rect x="2" y="6" width="2" height="4" fill="black"/>
  <rect x="12" y="6" width="2" height="4" fill="black"/>
  <rect x="6" y="2" width="4" height="2" fill="black"/>
  <rect x="6" y="12" width="4" height="2" fill="black"/>
</svg>